<svg width="373" height="520" viewBox="0 0 373 520" fill="none" xmlns="http://www.w3.org/2000/svg">
<path d="M138.755 414.446H34.3446V518.891H138.755V414.446Z" fill="black"/>
<path d="M0.177441 519.014V518.829C-0.684434 513.472 1.77806 509.346 7.74963 506.02C19.7543 499.431 57.0612 487.36 57.4306 487.237C57.9231 487.052 110.313 468.885 155.992 468.885C158.332 468.885 160.609 468.947 162.887 469.008C174.523 469.501 183.08 473.443 188.251 480.648C198.655 495.243 191.883 518.583 191.822 518.829V518.891H0.177441V519.014Z" fill="#98D8F4"/>
<path d="M79.3468 500.97C77.9309 500.97 76.4534 500.909 74.9759 500.724C56.0147 498.815 53.9831 483.234 54.414 474.182C55.2759 456.877 65.9262 436.924 72.2056 436.924C72.3287 436.924 72.3903 436.924 72.5134 436.924C77.2537 437.478 80.2087 452.935 80.455 454.475H101.509C102.494 453.551 115.977 440.619 121.825 440.619C122.502 440.619 123.056 440.803 123.487 441.173C126.565 443.759 125.827 454.475 121.825 465.621C118.87 473.874 106.927 500.97 79.3468 500.97Z" fill="#98D8F4"/>
<path d="M79.47 502.079C77.9925 502.079 76.4534 502.017 74.9144 501.832C65.1875 500.847 58.3541 496.105 55.2759 488.099C55.0297 487.484 55.3375 486.745 55.9531 486.498C56.5687 486.252 57.3075 486.56 57.5537 487.176C60.3241 494.319 66.2341 498.445 75.0991 499.308C85.5647 500.354 104.957 498.199 117.823 471.533C118.131 470.918 118.87 470.671 119.486 470.979C120.101 471.287 120.347 472.026 120.04 472.642C115.73 481.633 109.882 489.023 103.172 494.011C96.1534 499.369 88.1503 502.079 79.47 502.079Z" fill="black"/>
<path d="M84.4566 476.399H77.4384C76.7612 476.399 76.2072 475.844 76.2072 475.167C76.2072 474.489 76.7612 473.935 77.4384 473.935H84.4566C85.1337 473.935 85.6878 474.489 85.6878 475.167C85.6878 475.844 85.1337 476.399 84.4566 476.399Z" fill="black"/>
<path d="M79.2852 484.835C79.2237 484.835 79.1005 484.835 79.039 484.835C78.3618 484.712 77.9309 484.035 78.054 483.419L79.7162 474.982C79.8393 474.305 80.5165 473.874 81.1321 473.997C81.8093 474.12 82.2402 474.797 82.1171 475.413L80.4549 483.85C80.3934 484.404 79.8393 484.835 79.2852 484.835Z" fill="black"/>
<path d="M79.8394 485.513C76.6381 485.513 73.6215 484.343 71.7131 482.003C71.2822 481.51 71.3437 480.709 71.8978 480.278C72.3903 479.847 73.1906 479.909 73.6215 480.463C76.6381 484.096 82.7944 483.604 86.4881 480.894C87.0422 480.463 87.7809 480.586 88.2119 481.14C88.6428 481.695 88.5197 482.434 87.9656 482.865C85.5031 484.589 82.6097 485.513 79.8394 485.513Z" fill="black"/>
<path d="M98.0619 473.381C97.8772 473.381 97.6925 473.319 97.5078 473.258C96.8922 472.95 96.6459 472.211 96.9537 471.595L97.5694 470.363C97.8772 469.748 98.6159 469.501 99.2315 469.809C99.8472 470.117 100.093 470.856 99.7856 471.472L99.17 472.704C98.9237 473.135 98.4928 473.381 98.0619 473.381Z" fill="black"/>
<path d="M113.206 459.402C113.021 459.402 112.775 459.34 112.591 459.217C111.975 458.909 111.79 458.108 112.098 457.554L115.115 452.135C115.422 451.519 116.223 451.334 116.777 451.642C117.392 451.95 117.577 452.751 117.269 453.305L114.253 458.724C114.068 459.155 113.637 459.402 113.206 459.402Z" fill="black"/>
<path d="M70.174 458.231C69.4968 458.231 68.9427 457.677 68.9427 457V450.903C68.9427 450.226 69.4968 449.671 70.174 449.671C70.8512 449.671 71.4052 450.226 71.4052 450.903V457C71.4052 457.677 70.8512 458.231 70.174 458.231Z" fill="black"/>
<path d="M68.3887 473.381C68.204 473.381 68.0193 473.319 67.8346 473.258C67.219 472.95 66.9727 472.211 67.2805 471.595L67.8962 470.363C68.204 469.748 68.9428 469.501 69.5584 469.809C70.1741 470.117 70.4203 470.856 70.1125 471.472L69.4968 472.704C69.2506 473.135 68.8196 473.381 68.3887 473.381Z" fill="black"/>
<path d="M42.6556 519.445C42.0399 519.445 41.5474 519.014 41.4243 518.398C40.5009 512.548 43.1481 507.929 49.5506 504.357C52.8134 502.51 58.3541 500.108 65.9878 497.214C66.6035 496.967 67.3422 497.275 67.5884 497.953C67.8347 498.568 67.5269 499.307 66.8497 499.554C59.339 502.448 53.9215 504.788 50.7818 506.574C45.3028 509.592 43.0865 513.287 43.8868 518.029C44.01 518.706 43.5174 519.322 42.8403 519.445C42.7787 519.445 42.7171 519.445 42.6556 519.445Z" fill="black"/>
<path d="M99.2315 519.384C98.6159 519.384 98.1234 518.953 98.0003 518.337C96.8922 511.439 100.217 506.944 108.466 504.234C113.637 502.51 117.639 501.894 124.349 501.217C125.827 497.214 133.337 479.786 154.822 478.123C155.5 478.061 156.115 478.554 156.177 479.231C156.238 479.909 155.746 480.525 155.069 480.586C132.537 482.372 126.565 502.51 126.504 502.756C126.381 503.249 125.95 503.618 125.457 503.618C118.439 504.234 114.437 504.85 109.328 506.574C100.401 509.53 99.8472 513.964 100.463 517.967C100.586 518.645 100.093 519.26 99.4162 519.384C99.3546 519.384 99.2931 519.384 99.2315 519.384Z" fill="black"/>
<path d="M8.11901 519.384C7.56495 519.384 7.07244 519.014 6.94931 518.46C6.27212 515.935 6.9493 513.287 8.67305 511.316C9.10399 510.824 9.90429 510.762 10.3968 511.193C10.8893 511.624 10.9509 512.425 10.5199 512.917C9.28868 514.272 8.85774 516.12 9.28868 517.844C9.47337 518.521 9.04245 519.199 8.42683 519.322C8.3037 519.384 8.24214 519.384 8.11901 519.384Z" fill="black"/>
<path d="M14.8293 519.384C14.2752 519.384 13.7828 519.014 13.6596 518.46C12.9825 515.935 13.6596 513.287 15.3834 511.316C15.8143 510.824 16.6146 510.762 17.1071 511.193C17.5996 511.624 17.6612 512.425 17.2303 512.917C15.999 514.272 15.5681 516.12 15.999 517.844C16.1837 518.521 15.7527 519.199 15.1371 519.322C15.014 519.384 14.9524 519.384 14.8293 519.384Z" fill="black"/>
<path d="M50.5356 519.384C49.9815 519.384 49.489 519.014 49.3659 518.46C48.6887 515.935 49.3659 513.287 51.0896 511.316C51.5206 510.824 52.3209 510.762 52.8134 511.193C53.3059 511.624 53.3675 512.425 52.9365 512.917C51.7053 514.272 51.2743 516.12 51.7053 517.844C51.89 518.521 51.459 519.199 50.8434 519.322C50.7203 519.384 50.6587 519.384 50.5356 519.384Z" fill="black"/>
<path d="M106.865 519.384C106.311 519.384 105.819 519.014 105.696 518.46C105.018 515.935 105.696 513.287 107.419 511.316C107.85 510.824 108.651 510.762 109.143 511.193C109.636 511.624 109.697 512.425 109.266 512.917C108.035 514.272 107.604 516.12 108.035 517.844C108.22 518.521 107.789 519.199 107.173 519.322C107.05 519.384 106.988 519.384 106.865 519.384Z" fill="black"/>
<path d="M293.215 414.446H138.508V518.891H293.215V414.446Z" fill="#6C79D9"/>
<path d="M293.092 520C292.846 520 292.6 519.938 292.415 519.815L137.955 415.616C137.401 415.247 137.216 414.446 137.647 413.892C138.016 413.338 138.817 413.153 139.371 413.584L293.831 517.783C294.385 518.153 294.57 518.953 294.139 519.507C293.893 519.815 293.462 520 293.092 520Z" fill="black"/>
<path d="M138.632 520C138.262 520 137.831 519.815 137.585 519.445C137.216 518.891 137.339 518.09 137.893 517.721L292.353 413.522C292.907 413.153 293.707 413.276 294.077 413.83C294.446 414.384 294.323 415.185 293.769 415.554L139.309 519.753C139.124 519.938 138.878 520 138.632 520Z" fill="black"/>
<path d="M80.455 69.1479H166.458C178.524 69.1479 188.251 78.9397 188.251 90.9484C188.251 103.019 178.463 112.749 166.458 112.749H80.455C68.3888 112.749 58.6619 102.957 58.6619 90.9484C58.6619 78.9397 68.4503 69.1479 80.455 69.1479Z" fill="#6C79D9"/>
<path d="M80.455 112.749H166.458C178.524 112.749 188.251 122.541 188.251 134.549C188.251 146.62 178.463 156.35 166.458 156.35H80.455C68.3888 156.35 58.6619 146.558 58.6619 134.549C58.6619 122.479 68.4503 112.749 80.455 112.749Z" fill="#6C79D9"/>
<path d="M123.487 157.643C122.81 157.643 122.256 157.089 122.256 156.412V69.1479C122.256 68.4705 122.81 67.9163 123.487 67.9163C124.164 67.9163 124.718 68.4705 124.718 69.1479V156.412C124.718 157.089 124.164 157.643 123.487 157.643Z" fill="black"/>
<path d="M123.364 71.4881C123.364 71.4881 123.302 71.4881 123.241 71.4881C122.687 71.4265 122.194 70.9954 122.133 70.4412L114.068 15.8784C113.883 14.9546 113.822 14.0309 113.945 12.7992C114.561 5.28603 121.148 -0.318056 128.597 0.174611C129.52 0.236194 130.505 0.42095 131.552 0.728867C135.061 1.77578 137.954 4.11595 139.617 7.31828C141.34 10.5206 141.71 14.2772 140.602 17.7874L124.472 70.5644C124.411 71.1186 123.918 71.4881 123.364 71.4881ZM127.612 2.63794C121.825 2.63794 116.838 7.13353 116.346 12.9839C116.284 13.9693 116.284 14.7083 116.469 15.3857V15.4473L123.733 64.5908L138.262 17.0485C139.124 14.154 138.878 11.1364 137.462 8.48836C136.046 5.84028 133.707 3.93119 130.875 3.06903C130.013 2.82269 129.212 2.69953 128.412 2.63794C128.166 2.69953 127.92 2.63794 127.612 2.63794Z" fill="black"/>
<path d="M123.426 70.626C123.241 70.626 123.056 70.5644 122.872 70.5028L84.0872 51.2272C83.4716 50.9193 82.8559 50.4882 82.1172 49.934C77.4384 46.1158 76.6997 39.2185 80.455 34.4765C81.0091 33.676 81.6862 33.1217 82.2403 32.6906C84.5797 30.9047 87.4116 30.1041 90.3666 30.412C93.26 30.7815 95.9072 32.2595 97.6925 34.5381L124.411 68.5937C124.78 69.0248 124.78 69.7022 124.411 70.1333C124.164 70.4412 123.795 70.626 123.426 70.626ZM89.0122 32.8138C87.1038 32.8138 85.2569 33.4296 83.7794 34.6613C83.3484 34.9692 82.856 35.4003 82.4866 35.9545L82.425 36.0161C79.47 39.7111 80.0241 45.0689 83.6562 48.0249C84.2719 48.456 84.7644 48.8255 85.1953 49.0718L119.116 65.9456L95.7225 36.0777C94.3066 34.2918 92.275 33.1217 89.9972 32.8754C89.6894 32.8754 89.32 32.8138 89.0122 32.8138Z" fill="black"/>
<path d="M123.734 70.5644C123.426 70.5644 123.179 70.4412 122.933 70.2564C122.441 69.8254 122.379 69.0248 122.81 68.5321C123.056 68.2242 129.089 61.3884 137.954 56.1539C149.836 49.1334 161.102 48.5791 170.398 54.6143C170.952 54.9838 171.137 55.7228 170.767 56.3386C170.398 56.8929 169.659 57.0776 169.043 56.7081C148.358 43.4061 124.903 69.8869 124.657 70.1333C124.411 70.4412 124.103 70.5644 123.734 70.5644Z" fill="black"/>
<path d="M170.644 414.692L165.904 389.258L165.965 389.197C177.354 376.141 191.452 370.968 200.81 370.414H200.933V370.537C200.317 385.255 198.532 400.097 195.7 414.569V414.692H170.644Z" fill="black"/>
<path d="M125.888 350.461C125.58 350.461 94.4911 348.921 94.4911 331.37C98.6774 323.672 110.497 322.502 117.146 322.502C119.67 322.502 121.394 322.687 121.456 322.687H121.517V322.748C121.517 322.748 121.948 324.965 122.194 326.197C123.549 332.909 125.272 342.516 125.95 350.276V350.399L125.888 350.461Z" fill="black"/>
<path d="M346.897 458.786C346.836 458.601 343.265 442.097 339.879 431.135V431.012L339.941 430.95C340.002 430.888 348.929 425.839 357.917 424.669C359.087 424.484 360.256 424.422 361.303 424.422C369.86 424.422 371.953 429.534 372.015 429.595C372.076 429.718 375.339 442.589 347.144 458.847L347.021 458.909L346.897 458.786Z" fill="black"/>
<path d="M311.13 173.347C311.253 173.224 312.853 171.623 322.088 164.787C326.151 161.769 330.029 160.23 333.538 160.23C337.602 160.23 339.756 162.324 339.818 162.385C339.879 162.447 342.28 167.373 340.926 174.394C338.648 186.095 327.875 194.532 319.194 199.52L319.071 199.581L311.13 173.347Z" fill="black"/>
<path d="M253.015 518.891V518.768C253.015 518.706 252.522 510.7 262.126 500.478C270.56 491.486 278.686 479.847 274.808 461.187V461.126L339.202 428.302L339.264 428.425C342.834 439.202 347.082 458.539 347.144 458.724C347.144 458.786 348.436 465.252 349.914 474.613V474.736H349.791C340.372 477.014 317.347 485.882 306.512 518.768V518.829L253.015 518.891Z" fill="#F9494B"/>
<path d="M349.914 474.613L349.791 474.551C338.34 477.322 328.429 483.604 320.364 493.211L320.302 493.272L328.798 518.891V518.829H353.177V518.706C353.177 507.498 351.884 487.052 349.914 474.613Z" fill="black"/>
<path d="M278.255 461.557C276.101 461.557 274.869 461.372 274.869 461.372H274.808V461.311C273.269 453.736 267.974 440.865 261.264 424.669C252.707 403.853 241.995 377.927 235.469 353.478C229.498 331.247 226.727 296.822 225.373 271.88C223.957 244.845 223.957 222.798 223.957 222.552V222.429L310.822 229.696V229.819C310.699 242.443 310.329 253.713 309.898 264.675C308.359 308.276 307.374 337.097 327.751 364.255C335.016 373.924 341.234 381.745 346.713 388.581C360.318 405.578 368.937 418.695 372.015 429.657C372.076 429.78 365.859 418.202 339.879 431.32C331.815 435.754 326.089 439.695 320.549 443.513C314.392 447.762 308.606 451.765 300.418 455.83C290.568 460.818 282.318 461.557 278.255 461.557Z" fill="#F696BB"/>
<path d="M290.075 478.8H275.239C274.562 478.8 274.008 478.246 274.008 477.569C274.008 476.891 274.562 476.337 275.239 476.337H290.075C290.752 476.337 291.307 476.891 291.307 477.569C291.307 478.246 290.752 478.8 290.075 478.8Z" fill="black"/>
<path d="M285.212 495.181C285.027 495.181 284.842 495.12 284.719 495.058L271.237 488.838C270.621 488.53 270.375 487.791 270.621 487.176C270.929 486.56 271.668 486.313 272.284 486.56L285.766 492.78C286.382 493.088 286.628 493.827 286.382 494.442C286.135 494.935 285.704 495.181 285.212 495.181Z" fill="black"/>
<path d="M304.05 455.091C303.496 455.091 303.003 454.721 302.88 454.167L294.939 421.528C294.877 421.22 294.939 420.85 295.062 420.604C295.247 420.296 295.493 420.111 295.862 420.05L331.076 412.352L295.801 404.284C295.431 404.223 295.062 403.915 294.939 403.545C294.816 403.176 294.816 402.745 295.062 402.437L311.93 375.525L280.964 392.645C280.656 392.83 280.225 392.83 279.856 392.707C279.487 392.584 279.24 392.276 279.179 391.906L269.267 352.801L263.419 399.666C263.357 400.035 263.172 400.343 262.865 400.528C262.557 400.713 262.187 400.774 261.818 400.713L249.136 397.079C248.459 396.894 248.09 396.217 248.274 395.54C248.459 394.862 249.136 394.493 249.813 394.677L261.141 397.941L267.605 346.027C267.667 345.411 268.159 344.98 268.775 344.98C269.39 344.918 269.883 345.349 270.068 345.903L281.21 389.812L314.947 371.214C315.439 370.968 316.055 371.029 316.424 371.461C316.793 371.892 316.855 372.507 316.547 372.939L298.078 402.375L337.047 411.305C337.602 411.428 338.033 411.921 338.033 412.537C338.033 413.152 337.602 413.584 337.047 413.707L297.647 422.328L305.281 453.736C305.466 454.413 305.035 455.091 304.358 455.214C304.235 455.091 304.173 455.091 304.05 455.091Z" fill="black"/>
<path d="M296.047 458.909C295.677 458.909 295.308 458.724 295.062 458.478L277.947 437.17L270.929 446.654C270.498 447.208 269.76 447.331 269.206 446.9C268.652 446.469 268.528 445.73 268.959 445.176L276.901 434.399C277.147 434.091 277.455 433.906 277.886 433.906C278.255 433.906 278.625 434.091 278.871 434.337L296.97 456.877C297.401 457.431 297.34 458.17 296.786 458.601C296.601 458.847 296.293 458.909 296.047 458.909Z" fill="black"/>
<path d="M236.454 357.851C236.147 357.851 235.9 357.727 235.654 357.543C235.161 357.112 235.038 356.311 235.469 355.818L259.787 326.505L230.852 330.261C230.175 330.323 229.559 329.892 229.498 329.214C229.436 328.537 229.867 327.921 230.544 327.86L262.618 323.672C263.111 323.61 263.603 323.857 263.85 324.288C264.096 324.719 264.034 325.273 263.727 325.643L237.378 357.358C237.132 357.727 236.824 357.851 236.454 357.851Z" fill="black"/>
<path d="M293.092 347.32C293.03 347.32 292.969 347.32 292.907 347.32C292.353 347.258 291.922 346.766 291.861 346.211L288.29 304.827L244.519 302.487C243.965 302.487 243.472 302.056 243.349 301.502C243.226 300.948 243.534 300.393 244.027 300.147L284.104 281.549L269.206 268.863C268.713 268.432 268.652 267.631 269.082 267.138C269.513 266.646 270.314 266.584 270.806 267.015L287.182 280.933C287.49 281.179 287.674 281.61 287.613 282.042C287.551 282.473 287.305 282.842 286.936 282.965L249.629 300.27L289.521 302.426C290.137 302.487 290.629 302.918 290.691 303.534L293.892 340.977L308.359 306.736C308.606 306.121 309.344 305.813 309.96 306.059C310.576 306.305 310.883 307.044 310.637 307.66L294.261 346.458C294.015 347.012 293.584 347.32 293.092 347.32Z" fill="black"/>
<path d="M93.0752 414.692V414.569C93.0752 414.507 92.6443 405.27 109.451 392.645C126.073 380.144 126.996 364.255 125.765 350.337C125.088 342.578 123.302 332.971 122.01 326.258C121.763 324.965 121.517 323.795 121.332 322.81V322.748L156.854 284.69L201.241 354.525V354.587C201.302 359.821 201.179 365.179 200.933 370.537V370.66H200.81C192.376 371.153 182.833 375.032 174.769 381.252C164.488 389.197 156.608 400.713 152.052 414.63V414.692H93.0752Z" fill="#F9494B"/>
<path d="M302.326 86.6992C315.45 86.6992 326.089 76.0565 326.089 62.928C326.089 49.7996 315.45 39.1569 302.326 39.1569C289.202 39.1569 278.563 49.7996 278.563 62.928C278.563 76.0565 289.202 86.6992 302.326 86.6992Z" fill="black"/>
<path d="M349.237 86.6992C362.361 86.6992 373 76.0565 373 62.928C373 49.7996 362.361 39.1569 349.237 39.1569C336.113 39.1569 325.474 49.7996 325.474 62.928C325.474 76.0565 336.113 86.6992 349.237 86.6992Z" fill="black"/>
<path d="M279.425 92.7344C272.899 92.7344 267.605 87.4382 267.605 80.9104C267.605 74.3825 272.899 69.0864 279.425 69.0864C285.951 69.0864 291.245 74.3825 291.245 80.9104C291.245 87.4382 285.951 92.7344 279.425 92.7344Z" fill="white"/>
<path d="M279.425 70.318C285.273 70.318 290.014 75.0599 290.014 80.9104C290.014 86.7608 285.273 91.5027 279.425 91.5027C273.576 91.5027 268.836 86.7608 268.836 80.9104C268.836 75.0599 273.576 70.318 279.425 70.318ZM279.425 67.8547C272.222 67.8547 266.374 73.7051 266.374 80.9104C266.374 88.1156 272.222 93.966 279.425 93.966C286.628 93.966 292.476 88.1156 292.476 80.9104C292.476 73.7051 286.628 67.8547 279.425 67.8547Z" fill="black"/>
<path d="M281.087 84.1127C280.841 84.1127 280.595 84.0511 280.41 83.928L272.653 78.8165C272.099 78.447 271.914 77.708 272.284 77.0922C272.653 76.5379 273.392 76.3532 274.008 76.7227L281.764 81.8341C282.318 82.2036 282.503 82.9426 282.134 83.5585C281.887 83.928 281.457 84.1127 281.087 84.1127Z" fill="black"/>
<path d="M255.908 92.4264C246.243 92.4264 237.686 81.8957 235.1 66.8694C232.022 48.9486 236.454 33.368 245.381 30.5352C247.597 29.8578 249.936 29.4883 252.337 29.4883C263.665 29.4883 272.961 37.4325 275.546 39.8959C275.608 39.9575 275.608 39.9575 275.67 40.019C280.718 45.3768 282.811 50.4882 282.38 56.585C281.949 63.4823 278.317 71.6729 271.052 82.4499C266.681 88.9778 261.449 92.4264 255.908 92.4264Z" fill="white"/>
<path d="M252.337 30.72C263.234 30.72 272.222 38.4179 274.685 40.758C274.685 40.758 274.746 40.8196 274.808 40.8812C283.057 49.626 285.089 59.541 270.067 81.7725C265.943 87.9309 261.018 91.1948 255.908 91.1948C251.783 91.1948 247.536 88.9162 244.088 84.7901C240.333 80.3561 237.562 73.8899 236.331 66.623C234.854 57.9398 235.1 49.5029 237.07 42.975C238.917 36.9399 241.995 32.9369 245.812 31.7053C247.843 31.0279 250.06 30.72 252.337 30.72ZM252.337 28.2566C249.998 28.2566 247.536 28.5645 245.012 29.3651C235.531 32.3211 230.606 48.2096 233.869 67.0541C236.639 83.1274 245.935 93.6581 255.908 93.6581C261.449 93.6581 267.174 90.4558 272.099 83.1274C287.12 60.8958 286.32 49.4413 276.532 39.0953C276.47 39.0953 265.881 28.2566 252.337 28.2566Z" fill="black"/>
<path d="M276.47 39.0953C284.966 48.0865 286.689 57.9398 277.147 74.8752C260.956 64.3445 266.374 40.0806 266.374 40.0806C249.444 48.5791 233.93 44.761 233.93 44.761C235.716 36.6935 239.656 30.9663 244.95 29.3651C261.818 24.1305 276.47 39.0953 276.47 39.0953Z" fill="black"/>
<path d="M245.566 67.3005C245.319 67.3005 245.073 67.2389 244.827 67.0541C243.842 66.3151 243.103 65.3298 242.734 64.1597C242.18 62.497 242.487 59.8489 244.15 54.1216C244.334 53.4442 245.012 53.0747 245.689 53.2594C246.366 53.4442 246.735 54.1216 246.551 54.799C245.566 58.2477 244.642 62.0043 245.135 63.3591C245.381 64.0365 245.812 64.6524 246.366 65.0835C246.92 65.5145 247.043 66.2535 246.612 66.8078C246.304 67.1157 245.935 67.3005 245.566 67.3005Z" fill="black"/>
<path d="M253.446 60.3415C253.384 60.3415 253.322 60.3415 253.261 60.3415C252.584 60.2184 252.091 59.6025 252.214 58.9251L252.399 57.6319C252.522 56.9545 253.138 56.4618 253.815 56.585C254.492 56.7081 254.985 57.324 254.861 58.0014L254.677 59.2946C254.554 59.9105 254.061 60.3415 253.446 60.3415Z" fill="black"/>
<path d="M239.348 54.799C239.286 54.799 239.225 54.799 239.163 54.799C238.486 54.7375 237.993 54.06 238.117 53.3826L238.301 52.0278C238.363 51.3504 239.04 50.8577 239.717 50.9809C240.394 51.0424 240.887 51.7199 240.764 52.3973L240.579 53.7521C240.456 54.368 239.963 54.799 239.348 54.799Z" fill="black"/>
<path d="M249.444 74.8136C249.075 74.8136 248.767 74.8136 248.397 74.6905H248.336H248.213C247.967 74.6289 247.597 74.5673 247.289 74.3825C246.674 74.0746 246.427 73.3356 246.735 72.7198C247.043 72.104 247.782 71.8576 248.397 72.1655C248.459 72.2271 248.644 72.2271 248.828 72.2887H248.89C250.614 72.5966 252.276 71.4881 252.584 69.7638C252.707 69.0864 253.384 68.6553 254.061 68.84C254.738 68.9632 255.169 69.6406 254.985 70.318C254.431 73.0277 252.091 74.8136 249.444 74.8136Z" fill="black"/>
<path d="M322.95 216.332C321.78 206.787 318.394 196.01 311.684 174.517C310.822 171.684 309.898 168.728 308.913 165.526L308.852 165.403L236.085 189.667C235.715 189.728 195.823 192.746 168.243 197.549C152.976 200.259 143.126 203.708 135.307 209.188C126.811 215.1 120.717 223.537 115.484 236.408C109.636 250.819 104.28 279.332 99.4777 304.519C97.8771 313.08 95.1683 325.088 94.4911 331.37C101.017 321.27 118.316 322.502 121.64 322.933C137.154 325.95 148.666 333.156 158.762 339.56C163.934 342.824 168.92 345.965 173.722 347.997C187.758 353.971 195.577 354.833 198.963 354.833C200.44 354.833 201.117 354.71 201.117 354.71H201.241V354.587C200.81 304.827 188.066 270.341 187.02 267.631H274.808C292.23 267.631 305.774 262.704 314.023 253.405C321.903 244.476 324.92 232.036 322.95 216.332Z" fill="#F696BB"/>
<path d="M216.139 206.417C215.215 206.417 214.23 206.356 213.184 206.294C192.745 204.57 173.661 184.925 156.854 167.62L156.669 167.435C149.713 160.291 143.187 153.579 136.846 148.344C127.612 140.708 118.131 137.629 111.236 135.412L111.113 135.35C104.403 133.195 102.125 132.271 102.741 130.115C102.864 129.623 104.157 128.884 108.158 128.884C112.652 128.884 118.808 130.054 120.84 130.423C121.086 130.485 121.271 130.485 121.394 130.547C121.456 130.547 121.517 130.547 121.579 130.547C122.071 130.547 122.564 130.239 122.748 129.684C122.933 129.13 122.687 128.453 122.133 128.206L121.517 127.898L121.209 127.775C117.885 126.174 107.666 121.247 104.711 119.215C102.741 117.737 101.632 115.951 101.817 114.473C101.94 113.611 102.433 112.995 103.172 112.687C103.479 112.564 103.726 112.318 103.849 112.01C103.972 111.702 103.972 111.333 103.787 111.025C103.541 110.594 102.433 108.192 103.233 106.591C103.541 106.036 104.095 105.236 106.003 104.866C106.557 104.743 106.927 104.312 106.988 103.758C107.112 102.526 107.727 99.6933 111.298 99.6933C111.913 99.6933 112.652 99.8164 113.514 100.001C121.209 101.787 133.46 107.33 133.583 107.391C133.768 107.453 133.891 107.514 134.076 107.514C134.384 107.514 134.753 107.391 134.999 107.145C135.369 106.775 135.43 106.221 135.184 105.728C133.891 103.204 133.522 101.048 134.261 99.878C134.753 99.139 135.492 98.9543 136.046 98.9543C140.047 100.248 187.451 133.133 209.921 148.96C210.106 149.083 210.352 149.206 210.66 149.206C210.783 149.206 210.906 149.206 210.967 149.145C211.337 149.022 211.645 148.775 211.768 148.467C212.137 147.544 214.353 142.555 218.909 132.887L227.774 116.937L271.976 137.998L267.667 152.717C258.802 175.626 247.166 190.529 246.92 190.837C246.858 190.898 246.858 190.898 246.797 190.96C246.858 190.898 234.731 206.417 216.139 206.417Z" fill="white"/>
<path d="M135.923 100.001C141.463 102.465 188.312 135.042 209.305 149.761C209.736 150.068 210.229 150.192 210.721 150.192C210.967 150.192 211.152 150.192 211.398 150.068C212.137 149.884 212.691 149.329 212.999 148.652C213.368 147.728 215.585 142.74 220.14 133.195L228.451 118.291L270.683 138.429L266.682 152.101C257.94 174.763 246.489 189.42 246.12 189.851C246.058 189.913 246.058 189.913 245.997 189.974C245.873 190.159 242.795 194.039 237.501 197.796C230.667 202.661 223.526 205.124 216.139 205.124C215.277 205.124 214.292 205.062 213.307 205.001C193.299 203.276 174.399 183.816 157.777 166.696L157.593 166.511C150.636 159.368 144.049 152.593 137.647 147.359C128.227 139.599 118.624 136.459 111.606 134.18H111.544H111.482C108.589 133.256 106.065 132.456 104.711 131.593C103.972 131.162 103.849 130.916 103.91 130.67C104.218 130.485 105.326 130.115 108.158 130.115C112.529 130.115 118.624 131.286 120.594 131.655C120.84 131.717 121.025 131.717 121.148 131.778C121.271 131.778 121.456 131.84 121.579 131.84C122.625 131.84 123.549 131.162 123.918 130.177C124.287 129.007 123.795 127.775 122.687 127.221L122.071 126.913C122.071 126.913 122.071 126.913 122.01 126.913L121.702 126.79C118.377 125.189 108.281 120.324 105.449 118.353C103.849 117.183 102.987 115.828 103.048 114.781C103.11 114.227 103.418 114.042 103.664 113.981C104.28 113.734 104.772 113.18 105.018 112.564C105.265 111.948 105.203 111.209 104.895 110.594C104.341 109.547 103.972 108.007 104.341 107.268C104.464 107.083 104.711 106.467 106.25 106.16C107.296 105.975 108.158 105.051 108.22 103.943C108.404 102.033 109.389 101.048 111.298 101.048C111.667 101.048 112.283 101.11 113.206 101.294C120.778 103.08 132.906 108.5 133.029 108.561C133.337 108.684 133.707 108.808 134.076 108.808C134.753 108.808 135.369 108.561 135.861 108.069C136.6 107.33 136.723 106.16 136.231 105.236C134.938 102.772 134.938 101.171 135.246 100.617C135.43 100.309 135.553 100.124 135.923 100.001ZM136.231 97.5379C134.938 97.5379 133.891 98.0921 133.276 99.0774C132.291 100.679 132.598 103.204 134.137 106.16C132.106 105.236 120.963 100.371 113.822 98.708C112.96 98.5232 112.098 98.4 111.359 98.4C106.373 98.4 105.88 102.834 105.819 103.573C103.972 103.943 102.802 104.743 102.187 105.975C101.14 108.13 102.433 110.901 102.741 111.517C101.571 112.01 100.832 112.995 100.647 114.289C100.401 116.321 101.694 118.476 104.033 120.201C107.112 122.356 117.639 127.406 120.963 129.007L121.579 129.315C120.532 129.13 113.329 127.652 108.158 127.652C104.157 127.652 101.94 128.391 101.571 129.808C100.586 133.318 104.464 134.549 110.805 136.582C117.639 138.799 126.996 141.816 136.107 149.329C142.448 154.564 149.036 161.338 155.992 168.482C172.983 185.972 192.252 205.74 213.122 207.526C214.107 207.587 215.154 207.649 216.139 207.649C235.408 207.649 247.843 191.637 247.967 191.452C248.09 191.329 259.971 176.241 268.959 152.901L273.577 137.136L227.343 115.151L217.924 132.148C213.245 141.939 211.091 146.928 210.721 147.79C206.35 144.711 139.186 97.5379 136.231 97.5379Z" fill="black"/>
<path d="M138.632 378.296C138.508 378.296 138.385 378.296 138.262 378.235L123.918 373.678C123.241 373.493 122.933 372.754 123.118 372.138C123.302 371.461 124.041 371.153 124.657 371.337L139.001 375.894C139.678 376.079 139.986 376.818 139.801 377.434C139.617 377.988 139.124 378.296 138.632 378.296Z" fill="black"/>
<path d="M130.136 394C129.89 394 129.582 393.938 129.397 393.754L118.131 384.886C117.577 384.455 117.516 383.716 117.947 383.161C118.377 382.607 119.116 382.546 119.67 382.977L130.936 391.845C131.49 392.276 131.552 393.015 131.121 393.569C130.875 393.815 130.505 394 130.136 394Z" fill="black"/>
<path d="M162.764 343.194C162.333 343.194 161.902 342.947 161.717 342.578C161.41 341.962 161.594 341.223 162.21 340.915L172.183 335.373L152.791 300.024C152.545 299.531 152.606 298.915 153.037 298.546C153.468 298.176 154.084 298.115 154.515 298.361L185.973 317.637L194.284 298.176C194.53 297.561 195.269 297.253 195.885 297.499C196.5 297.745 196.808 298.484 196.562 299.1L187.697 319.854C187.574 320.162 187.266 320.408 186.958 320.531C186.589 320.654 186.219 320.593 185.911 320.408L157.162 302.795L174.953 335.126C175.261 335.742 175.076 336.481 174.461 336.789L163.441 342.947C163.195 343.132 162.949 343.194 162.764 343.194Z" fill="black"/>
<path d="M132.598 315.173C132.106 315.173 131.613 314.865 131.429 314.373L119.301 282.042L102.248 295.22C101.694 295.651 100.955 295.528 100.524 294.974C100.093 294.42 100.217 293.681 100.771 293.25L119.116 279.024C119.424 278.778 119.855 278.716 120.224 278.839C120.594 278.962 120.901 279.209 121.025 279.578L131.736 307.968L133.83 270.218C133.83 269.848 134.014 269.479 134.384 269.294C134.691 269.047 135.061 268.986 135.43 269.109L167.381 279.085L143.31 256.053C143.064 255.807 142.941 255.499 142.941 255.13C142.941 254.76 143.064 254.452 143.31 254.206L169.597 230.004L131.798 241.766C131.49 241.889 131.121 241.828 130.813 241.643C130.505 241.458 130.321 241.212 130.197 240.842L124.718 218.426C124.534 217.748 124.965 217.071 125.642 216.948C126.319 216.763 126.996 217.194 127.119 217.872L132.291 238.995L174.091 226.001C174.646 225.816 175.261 226.062 175.507 226.555C175.815 227.048 175.692 227.663 175.261 228.094L145.957 255.13L172.86 280.871C173.291 281.241 173.353 281.918 173.045 282.411C172.737 282.904 172.183 283.15 171.629 282.965L136.231 271.942L133.891 313.942C133.83 314.496 133.399 314.989 132.845 315.112C132.721 315.173 132.66 315.173 132.598 315.173Z" fill="black"/>
<path d="M212.507 252.174C212.26 252.174 212.076 252.112 211.891 251.989C211.398 251.681 211.214 251.127 211.337 250.572L220.633 218.056L179.694 213.93C179.14 213.869 178.709 213.438 178.586 212.883C178.524 212.329 178.77 211.775 179.324 211.59L200.625 202.353C201.241 202.106 201.979 202.353 202.226 202.969C202.472 203.584 202.226 204.323 201.61 204.57L184.68 211.898L222.357 215.655C222.726 215.716 223.034 215.901 223.28 216.209C223.526 216.517 223.526 216.886 223.465 217.256L215.031 246.693L243.226 219.042C243.719 218.549 244.457 218.549 244.95 219.042L269.698 242.69L261.079 209.312C261.018 208.942 261.079 208.634 261.264 208.326C261.449 208.018 261.757 207.834 262.126 207.772L294.446 203.338L277.086 193.054C276.47 192.684 276.285 191.945 276.655 191.391C277.024 190.775 277.763 190.59 278.317 190.96L298.694 203.03C299.125 203.276 299.371 203.831 299.248 204.323C299.125 204.816 298.756 205.247 298.201 205.309L263.726 210.051L273.084 246.262C273.207 246.816 272.961 247.37 272.53 247.616C272.037 247.924 271.483 247.801 271.052 247.432L244.026 221.567L213.368 251.619C213.122 252.05 212.814 252.174 212.507 252.174Z" fill="black"/>
<path d="M322.765 234.622C322.642 234.622 322.457 234.622 322.334 234.561L299.31 225.446C298.879 225.262 298.571 224.831 298.509 224.338C298.509 223.845 298.756 223.414 299.248 223.168L322.272 212.883C322.888 212.637 323.627 212.883 323.873 213.499C324.181 214.115 323.873 214.854 323.257 215.1L302.88 224.215L323.196 232.282C323.811 232.529 324.119 233.268 323.873 233.883C323.688 234.314 323.257 234.622 322.765 234.622Z" fill="black"/>
<path d="M274.931 268.74H225.25C224.573 268.74 224.019 268.185 224.019 267.508C224.019 266.83 224.573 266.276 225.25 266.276H274.931C289.521 266.276 301.095 262.889 309.221 256.238C309.775 255.807 310.514 255.869 310.945 256.423C311.376 256.977 311.314 257.716 310.76 258.147C302.203 265.168 290.137 268.74 274.931 268.74Z" fill="black"/>
<path d="M311.191 173.593C309.16 175.318 286.628 194.408 263.049 194.408C257.632 194.408 252.768 193.423 248.09 191.452L248.028 191.391L248.151 191.268C248.274 191.145 259.663 176.672 268.836 152.901L217.924 132.271L217.986 132.148C221.987 123.772 226.727 114.227 231.96 103.696C238.609 90.3942 248.028 83.2505 259.91 82.4499C260.464 82.3884 261.079 82.3884 261.633 82.3884C278.44 82.3884 292.107 99.5085 306.636 117.614C325.782 141.57 339.818 162.262 339.941 162.447C331.199 154.934 311.191 173.593 311.191 173.593Z" fill="#F9494B"/>
<path d="M186.835 268.74H173.784C173.106 268.74 172.552 268.185 172.552 267.508C172.552 266.83 173.106 266.276 173.784 266.276H186.835C187.512 266.276 188.066 266.83 188.066 267.508C188.066 268.185 187.512 268.74 186.835 268.74Z" fill="black"/>
<path d="M267.051 155.241C266.866 155.241 266.743 155.241 266.558 155.118C265.943 154.872 265.635 154.133 265.881 153.517C265.943 153.394 270.129 143.171 273.761 132.948C274.007 132.332 274.685 131.963 275.3 132.209C275.916 132.456 276.285 133.133 276.039 133.749C272.468 144.033 268.159 154.318 268.159 154.441C267.974 154.934 267.543 155.241 267.051 155.241Z" fill="black"/>
<path d="M136.785 118.291C136.6 118.291 136.415 118.23 136.231 118.168C136.107 118.107 120.963 110.901 107.296 106.098C106.681 105.852 106.311 105.174 106.557 104.558C106.804 103.943 107.481 103.573 108.097 103.819C121.887 108.623 137.154 115.951 137.277 116.013C137.893 116.321 138.139 117.06 137.831 117.676C137.708 118.045 137.216 118.291 136.785 118.291Z" fill="black"/>
<path d="M133.152 125.558C132.968 125.558 132.783 125.497 132.598 125.435C119.67 119.215 110.128 115.151 104.341 113.365C103.664 113.18 103.295 112.503 103.541 111.825C103.726 111.148 104.403 110.84 105.08 111.025C110.99 112.811 120.655 116.937 133.707 123.218C134.322 123.526 134.568 124.265 134.261 124.881C134.076 125.312 133.583 125.558 133.152 125.558Z" fill="black"/>
<path d="M146.512 114.658C146.327 114.658 146.142 114.596 145.957 114.535L133.46 108.623C132.845 108.315 132.598 107.576 132.845 106.96C133.152 106.344 133.891 106.098 134.507 106.344L147.004 112.256C147.62 112.564 147.866 113.303 147.62 113.919C147.435 114.412 146.942 114.658 146.512 114.658Z" fill="black"/>
</svg>
